# Blender v2.79 (sub 0) OBJ File: ''
# www.blender.org
mtllib cube.mtl
o Cube
v -0.677653 -0.980091 -2.230338
v -0.677653 -0.980091 -0.230338
v -2.677653 -0.980091 -0.230338
v -2.677652 -0.980091 -2.230338
v -0.677652 1.019909 -2.230337
v -0.677653 1.019909 -0.230337
v -2.677653 1.019909 -0.230338
v -2.677653 1.019909 -2.230338
vn 0.0000 -1.0000 0.0000
vn 0.0000 1.0000 0.0000
vn 1.0000 0.0000 0.0000
vn -0.0000 -0.0000 1.0000
vn -1.0000 -0.0000 -0.0000
vn 0.0000 0.0000 -1.0000
usemtl Material.001
s off
f 1//1 2//1 3//1 4//1
f 5//2 8//2 7//2 6//2
f 1//3 5//3 6//3 2//3
f 2//4 6//4 7//4 3//4
f 3//5 7//5 8//5 4//5
f 5//6 1//6 4//6 8//6
